<svg width="56" height="56" viewBox="0 0 56 56" fill="none" xmlns="http://www.w3.org/2000/svg">
<path d="M39.6667 42C40.9043 42 42.0913 42.4916 42.9665 43.3668C43.8417 44.242 44.3333 45.429 44.3333 46.6666C44.3333 47.9043 43.8417 49.0913 42.9665 49.9665C42.0913 50.8416 40.9043 51.3333 39.6667 51.3333C38.429 51.3333 37.242 50.8416 36.3668 49.9665C35.4917 49.0913 35 47.9043 35 46.6666C35 44.0766 37.0767 42 39.6667 42ZM2.33333 4.66663H9.96333L12.1567 9.33329H46.6667C47.2855 9.33329 47.879 9.57913 48.3166 10.0167C48.7542 10.4543 49 11.0478 49 11.6666C49 12.0633 48.8833 12.46 48.72 12.8333L40.3667 27.93C39.5733 29.3533 38.0333 30.3333 36.2833 30.3333H18.9L16.8 34.1366L16.73 34.4166C16.73 34.5713 16.7915 34.7197 16.9008 34.8291C17.0102 34.9385 17.1586 35 17.3133 35H44.3333V39.6666H16.3333C15.0957 39.6666 13.9087 39.175 13.0335 38.2998C12.1583 37.4246 11.6667 36.2376 11.6667 35C11.6667 34.1833 11.8767 33.4133 12.2267 32.76L15.4 27.0433L6.99999 9.33329H2.33333V4.66663ZM16.3333 42C17.571 42 18.758 42.4916 19.6332 43.3668C20.5083 44.242 21 45.429 21 46.6666C21 47.9043 20.5083 49.0913 19.6332 49.9665C18.758 50.8416 17.571 51.3333 16.3333 51.3333C15.0957 51.3333 13.9087 50.8416 13.0335 49.9665C12.1583 49.0913 11.6667 47.9043 11.6667 46.6666C11.6667 44.0766 13.7433 42 16.3333 42ZM37.3333 25.6666L43.82 14H14.3267L19.8333 25.6666H37.3333Z" fill="black"/>
</svg>
