<svg width="60" height="60" viewBox="0 0 60 60" fill="none" xmlns="http://www.w3.org/2000/svg">
<path fill-rule="evenodd" clip-rule="evenodd" d="M28.3 15.4401H12.5C9.7375 15.4401 7.5 17.8126 7.5 20.7351V47.2051C7.5 50.1301 9.7375 52.5001 12.5 52.5001H40C42.7625 52.5001 45 50.1301 45 47.2051V27.8301L35.215 38.1901C34.3605 39.1038 33.2477 39.7352 32.025 40.0001L25.3225 41.4201C20.9475 42.3451 17.0925 38.2626 17.9675 33.6326L19.3075 26.5351C19.55 25.2551 20.145 24.0776 21.0175 23.1551L28.3 15.4401Z" fill="black"/>
<path fill-rule="evenodd" clip-rule="evenodd" d="M49.615 10.795C49.3651 10.1537 48.9942 9.56636 48.5225 9.06505C48.0605 8.57359 47.5045 8.17997 46.8875 7.90755C46.2791 7.64039 45.6219 7.50244 44.9575 7.50244C44.2931 7.50244 43.6359 7.64039 43.0275 7.90755C42.4105 8.17997 41.8545 8.57359 41.3925 9.06505L40.0275 10.51L47.1575 18.06L48.5225 16.6125C48.9946 16.1115 49.3655 15.5241 49.615 14.8825C50.129 13.5685 50.129 12.1091 49.615 10.795ZM43.625 21.8025L36.4925 14.25L24.55 26.9C24.3738 27.0878 24.255 27.322 24.2075 27.575L22.8675 34.675C22.6925 35.6 23.465 36.415 24.3375 36.23L31.0425 34.8125C31.2869 34.7593 31.5093 34.6329 31.68 34.45L43.625 21.8025Z" fill="black"/>
</svg>
