<svg width="56" height="56" viewBox="0 0 56 56" fill="none" xmlns="http://www.w3.org/2000/svg">
<g clip-path="url(#clip0_1_2)">
<path fill-rule="evenodd" clip-rule="evenodd" d="M28 4.66663C40.887 4.66663 51.3333 15.113 51.3333 28C51.3416 33.385 49.4792 38.6058 46.0647 42.77L46.1113 42.8213L45.8033 43.0826C43.6152 45.6708 40.8884 47.7501 37.8133 49.1752C34.7383 50.6002 31.3892 51.3368 28 51.3333C21.1167 51.3333 14.9333 48.3536 10.6633 43.617L10.1967 43.0803L9.88867 42.8236L9.93533 42.7676C6.5211 38.6042 4.65879 33.3843 4.66667 28C4.66667 15.113 15.113 4.66663 28 4.66663ZM28 39.6666C23.66 39.6666 19.7377 41.048 16.8163 42.9473C20.042 45.3676 23.9673 46.673 28 46.6666C32.0327 46.673 35.958 45.3676 39.1837 42.9473C35.8455 40.8082 31.9647 39.6698 28 39.6666ZM28 9.33329C24.4872 9.33319 21.0457 10.3243 18.071 12.1927C15.0963 14.0611 12.7092 16.7309 11.184 19.8953C9.65887 23.0597 9.05754 26.5902 9.44919 30.0811C9.84083 33.572 11.2095 36.8815 13.398 39.6293C17.1803 36.9156 22.3417 35 28 35C33.6583 35 38.8197 36.9156 42.602 39.6293C44.7905 36.8815 46.1592 33.572 46.5508 30.0811C46.9425 26.5902 46.3411 23.0597 44.816 19.8953C43.2908 16.7309 40.9037 14.0611 37.929 12.1927C34.9543 10.3243 31.5128 9.33319 28 9.33329ZM28 14C30.4754 14 32.8493 14.9833 34.5997 16.7336C36.35 18.484 37.3333 20.8579 37.3333 23.3333C37.3333 25.8086 36.35 28.1826 34.5997 29.933C32.8493 31.6833 30.4754 32.6666 28 32.6666C25.5246 32.6666 23.1507 31.6833 21.4003 29.933C19.65 28.1826 18.6667 25.8086 18.6667 23.3333C18.6667 20.8579 19.65 18.484 21.4003 16.7336C23.1507 14.9833 25.5246 14 28 14ZM28 18.6666C26.7623 18.6666 25.5753 19.1583 24.7002 20.0335C23.825 20.9086 23.3333 22.0956 23.3333 23.3333C23.3333 24.571 23.825 25.758 24.7002 26.6331C25.5753 27.5083 26.7623 28 28 28C29.2377 28 30.4247 27.5083 31.2998 26.6331C32.175 25.758 32.6667 24.571 32.6667 23.3333C32.6667 22.0956 32.175 20.9086 31.2998 20.0335C30.4247 19.1583 29.2377 18.6666 28 18.6666Z" fill="white"/>
</g>
<defs>
<clipPath id="clip0_1_2">
<rect width="56" height="56" fill="white"/>
</clipPath>
</defs>
</svg>
