<svg width="37" height="50" viewBox="0 0 37 50" fill="none" xmlns="http://www.w3.org/2000/svg">
<path d="M35 34.4062V22.9249C35 13.0581 35 8.12936 32.5837 5.06353C30.1673 2 26.277 2 18.5 2C10.7212 2 6.83267 2 4.41633 5.06353C2 8.12936 2 13.0627 2 22.9249V34.4085C2 41.5292 2 45.0918 3.34567 46.6466C3.98733 47.3894 4.79767 47.8563 5.66117 47.9805C7.47067 48.2404 9.5845 45.8945 13.8103 41.2049C15.6803 39.1326 16.6135 38.0954 17.6933 37.824C18.225 37.686 18.775 37.686 19.3067 37.824C20.3883 38.0954 21.3215 39.1326 23.1897 41.2049C27.4155 45.8945 29.5293 48.2404 31.3388 47.9782C32.2005 47.8563 33.0127 47.3894 33.6543 46.6466C35 45.0918 35 41.5292 35 34.4062Z" stroke="black" stroke-width="3.75"/>
<path d="M24 11.1998H13" stroke="black" stroke-width="3.75" stroke-linecap="round"/>
</svg>
